<?xml version="1.0" encoding="utf-8"?>
<!-- Generator: Adobe Illustrator 28.1.0, SVG Export Plug-In . SVG Version: 6.00 Build 0)  -->
<svg version="1.1" id="Слой_1" xmlns="http://www.w3.org/2000/svg" xmlns:xlink="http://www.w3.org/1999/xlink" x="0px" y="0px"
	 viewBox="0 0 595.28 841.89" style="enable-background:new 0 0 595.28 841.89;" xml:space="preserve">
<style type="text/css">
	.st0{fill:#333333;stroke:#FFFFFF;stroke-miterlimit:10;}
	.st1{fill:#FFFFFF;}
	.st2{fill:none;stroke:#FFFFFF;stroke-width:0.2452;stroke-miterlimit:10;}
	.st3{fill:none;stroke:#FFFFFF;stroke-width:0.7357;stroke-miterlimit:10;}
	.st4{fill:none;stroke:#FFFFFF;stroke-width:1.4714;stroke-miterlimit:10;}
	.st5{fill:none;stroke:#FFFFFF;stroke-width:0.7778;stroke-miterlimit:10;}
</style>
<rect class="st0" width="595.28" height="841.89"/>
<g>
	<g>
		<path class="st1" d="M230.42,405.15l-0.51,0.4c-4.66,3.93-10.07,5.9-16.22,5.9c-6.83,0-12.71-2.46-17.64-7.39
			c-4.93-4.92-7.4-10.83-7.4-17.71c0-6.75,2.47-12.51,7.4-17.3c4.93-4.79,10.81-7.18,17.64-7.18c3.04,0,5.91,0.51,8.62,1.52
			c2.23,0.81,4.46,2.03,6.69,3.65l0.51,0.3l-0.81,1.22l-0.51-0.3c-1.89-1.42-4.09-2.6-6.59-3.55c-2.5-0.95-5.14-1.42-7.91-1.42
			c-6.35,0-11.88,2.28-16.58,6.83c-4.7,4.55-7.05,9.96-7.05,16.24c0,6.41,2.31,11.96,6.95,16.64c4.63,4.69,10.19,7.03,16.68,7.03
			c5.74,0,10.88-1.83,15.41-5.48l0.51-0.4L230.42,405.15z"/>
		<path class="st1" d="M239.42,410.64H238v-46.03h1.42V410.64z"/>
		<path class="st1" d="M265.74,410.05l-1.18,0.79l-16.02-20.99v20.99h-1.42v-45.52c0-0.48,0.24-0.71,0.71-0.71h3.95
			c4.06,0,7.28,1.27,9.68,3.8c2.4,2.53,3.6,5.63,3.6,9.28c0,3.31-1.17,6.17-3.5,8.57c-2.33,2.4-5.12,3.6-8.37,3.6l-2.74,0.01
			L265.74,410.05z M263.64,377.69c0-3.31-1.05-6.08-3.14-8.31c-2.1-2.23-5-3.35-8.72-3.35h-3.24v22.41h4.66
			c2.77,0,5.2-1.08,7.3-3.24C262.59,383.03,263.64,380.52,263.64,377.69z"/>
		<path class="st1" d="M313.51,405.15l-0.51,0.4c-4.66,3.93-10.07,5.9-16.22,5.9c-6.83,0-12.71-2.46-17.64-7.39
			c-4.93-4.92-7.4-10.83-7.4-17.71c0-6.75,2.47-12.51,7.4-17.3c4.93-4.79,10.81-7.18,17.64-7.18c3.04,0,5.91,0.51,8.62,1.52
			c2.23,0.81,4.46,2.03,6.69,3.65l0.51,0.3l-0.81,1.22l-0.51-0.3c-1.89-1.42-4.09-2.6-6.59-3.55c-2.5-0.95-5.14-1.42-7.91-1.42
			c-6.35,0-11.88,2.28-16.58,6.83c-4.7,4.55-7.05,9.96-7.05,16.24c0,6.41,2.31,11.96,6.95,16.64c4.63,4.69,10.19,7.03,16.68,7.03
			c5.74,0,10.88-1.83,15.41-5.48l0.51-0.4L313.51,405.15z"/>
		<path class="st1" d="M335.8,410.64h-16.32c-0.47,0-0.71-0.24-0.71-0.71v-45.32h1.42v44.61h15.61V410.64z"/>
		<path class="st1" d="M359.51,410.64h-17.74c-0.47,0-0.71-0.24-0.71-0.71v-44.61c0-0.47,0.23-0.71,0.7-0.71H359v1.42h-16.53v20.38
			H359v1.42h-16.53v21.39h17.03V410.64z"/>
		<path class="st1" d="M407.94,410.64h-1.42v-22.81h-23.83v22.81h-1.42v-46.03h1.42v21.8h23.83v-21.8h1.42V410.64z"/>
		<path class="st1" d="M438.54,411.45c-7.98,0-14.3-2.63-18.96-7.89c-4.26-4.79-6.39-10.62-6.39-17.51c0-6.75,2.06-12.45,6.19-17.1
			c4.6-5.19,10.85-7.79,18.76-7.79c7.98,0,14.3,2.63,18.96,7.89c4.26,4.79,6.39,10.62,6.39,17.51c0,6.75-2.06,12.45-6.19,17.1
			C452.7,408.85,446.45,411.45,438.54,411.45z M438.54,410.03c7.47,0,13.36-2.43,17.67-7.28c3.9-4.38,5.86-9.78,5.86-16.19
			c0-6.54-1.99-12.04-5.96-16.49c-4.44-4.99-10.43-7.49-17.97-7.49c-7.47,0-13.36,2.43-17.67,7.28c-3.9,4.39-5.86,9.78-5.86,16.19
			c0,6.54,1.99,12.04,5.96,16.49C425.02,407.53,431.01,410.03,438.54,410.03z"/>
		<path class="st1" d="M495.1,397.79c0,4.52-1.32,7.99-3.95,10.42c-2.37,2.16-5.41,3.24-9.12,3.24c-3.92,0-6.96-0.91-9.12-2.73
			c-2.7-2.29-4.06-6.07-4.06-11.33v-34.2h1.42v34.2c0,4.92,1.15,8.36,3.45,10.32c1.83,1.55,4.6,2.33,8.31,2.33
			c3.51,0,6.25-0.88,8.21-2.63c2.3-2.09,3.45-5.29,3.45-9.61v-34.6h1.42V397.79z"/>
		<path class="st1" d="M524.39,398.8c0,3.44-1.18,6.41-3.55,8.9c-2.37,2.5-5.27,3.74-8.72,3.74c-2.84,0-5.37-0.74-7.6-2.21
			c-2.5-1.67-3.99-3.88-4.46-6.62v-0.7l1.32-0.2l0.1,0.7c0.41,2.27,1.66,4.11,3.75,5.51c2.09,1.4,4.39,2.1,6.89,2.1
			c2.97,0,5.53-1.09,7.65-3.29c2.13-2.19,3.19-4.84,3.19-7.94c0-2.43-0.64-4.55-1.93-6.38c-0.74-1.08-3.52-3.41-8.31-6.98
			c-3.79-2.9-6.15-4.86-7.1-5.87c-2.23-2.43-3.35-5.09-3.35-7.99c0-2.77,0.96-5.13,2.87-7.08c1.91-1.95,4.3-2.93,7.17-2.93
			c2.19,0,4.12,0.47,5.79,1.42c1.67,0.95,2.89,2.33,3.64,4.16v0.61l-1.42,0.41l-0.2-0.61c-1.15-3.04-3.79-4.56-7.91-4.56
			c-2.3,0-4.29,0.84-5.98,2.53c-1.69,1.69-2.53,3.71-2.53,6.07c0,1.89,0.56,3.66,1.67,5.31s3.85,4.15,8.21,7.49
			c4.36,3.34,6.71,5.18,7.05,5.51C523.14,392.46,524.39,395.43,524.39,398.8z"/>
		<path class="st1" d="M548.61,410.64h-17.74c-0.47,0-0.71-0.24-0.71-0.71v-44.61c0-0.47,0.23-0.71,0.7-0.71h17.24v1.42h-16.53
			v20.38h16.53v1.42h-16.53v21.39h17.03V410.64z"/>
	</g>
	<g>
		<g>
			<g>
				<g>
					<polyline class="st2" points="47.3,368.42 49.58,368.42 58.39,368.42 67.38,368.42 75.48,368.42 83.41,368.42 90.46,368.42 
						97.7,368.42 103.67,368.42 111.98,368.42 119.99,368.42 125.98,368.42 133.21,368.42 140.26,368.42 148.19,368.42 
						154.94,368.42 156.29,368.42 165.27,368.42 168.91,368.42 					"/>
					<path class="st2" d="M103.99,429.39c-1.44-0.17-2.87-0.37-4.29-0.64"/>
					<path class="st2" d="M108.61,307.11c-0.05,0-0.09,0-0.14,0.01c-0.01,0-0.03-0.01-0.04,0c-0.02,0-0.03,0-0.05,0
						c-0.01,0-0.03,0-0.04,0s-0.01,0-0.01,0h-0.01c-16.44,0.68-31.24,7.91-41.89,19.1c-7.98,8.38-13.62,18.98-15.87,30.71
						c-0.37,1.88-0.65,3.8-0.82,5.74c-0.11,1.14-0.19,2.28-0.23,3.43c-0.02,0.46-0.04,0.93-0.04,1.4c-0.01,0.3-0.01,0.61-0.01,0.91
						s0,0.61,0.01,0.91c0,0.47,0.02,0.94,0.04,1.4c0.04,1.16,0.12,2.3,0.23,3.43c0.18,1.94,0.45,3.86,0.82,5.74
						c2.26,11.73,7.9,22.34,15.87,30.71c8.23,8.65,18.94,14.94,30.98,17.66"/>
					<path class="st2" d="M108.32,429.72L108.32,429.72h0.02c0.01,0,0.03,0,0.04,0c0.02,0,0.03,0,0.05,0c0.01,0.01,0.01,0,0.02,0
						c0.01,0,0.01,0,0.02,0c0.03,0.01,0.06,0.01,0.09,0.01c0.01,0,0.01,0,0.02,0c0.01,0,0.01,0,0.02,0h0.01"/>
					<path class="st2" d="M108.33,429.67c0.01,0.01,0.02,0.01,0.03,0.01s0.02,0.01,0.03,0.01c0.03,0,0.05,0.01,0.08,0.01"/>
					<path class="st2" d="M108.55,429.72h0.03v0.01c0.01,0,0.01,0,0.02,0h0.01"/>
					<path class="st2" d="M89.24,422.57c-7.26-4.18-13.57-9.76-18.59-16.33c-3.42-4.48-6.25-9.43-8.37-14.71
						c-1.66-4.14-2.88-8.48-3.62-12.97c-0.32-1.9-0.55-3.83-0.7-5.78c-0.1-1.44-0.15-2.89-0.15-4.36c0-1.46,0.05-2.91,0.15-4.36
						c0.15-1.95,0.37-3.87,0.7-5.78c0.74-4.49,1.96-8.83,3.62-12.97c2.12-5.29,4.94-10.23,8.37-14.71
						c6.73-8.81,15.76-15.82,26.29-20.07c3.63-1.47,7.44-2.61,11.39-3.36c0.01-0.01,0.02-0.01,0.03-0.01s0.02-0.01,0.03-0.01
						c0.03,0,0.05-0.01,0.08-0.01c0.03-0.01,0.05-0.01,0.08-0.02c0.01,0,0.02,0,0.03,0h0.01c0.01-0.01,0.01-0.01,0.02-0.01"/>
					<path class="st2" d="M119.97,428.17c2.4-0.56,4.75-1.27,7.03-2.1c0.44-0.16,0.88-0.33,1.32-0.5c0.88-0.34,1.75-0.72,2.61-1.1
						c0.69-0.3,1.36-0.62,2.04-0.96c0.33-0.16,0.67-0.32,1-0.5c0.87-0.45,1.74-0.92,2.59-1.41c0.42-0.25,0.83-0.49,1.25-0.75
						c0.32-0.2,0.65-0.39,0.96-0.6c0.51-0.31,1.02-0.65,1.52-0.99c0.35-0.24,0.7-0.47,1.04-0.72c0.43-0.3,0.85-0.62,1.28-0.93
						c0.38-0.28,0.76-0.57,1.13-0.86c0.39-0.29,0.77-0.61,1.15-0.92c0.37-0.3,0.75-0.62,1.11-0.93c1.14-0.97,2.25-2,3.32-3.06
						c0.42-0.42,0.84-0.86,1.27-1.3c7.93-8.37,13.54-18.93,15.78-30.63c0.36-1.87,0.64-3.79,0.82-5.72
						c0.11-1.14,0.19-2.29,0.23-3.44c0.02-0.46,0.04-0.93,0.04-1.4c0.01-0.3,0.01-0.61,0.01-0.92s0-0.62-0.01-0.92
						c0-0.47-0.02-0.94-0.04-1.4c-0.04-1.16-0.12-2.31-0.23-3.44c-0.19-1.93-0.46-3.85-0.82-5.72
						c-2.25-11.69-7.86-22.26-15.78-30.63c-0.42-0.44-0.84-0.88-1.27-1.3c-1.07-1.06-2.18-2.09-3.32-3.06
						c-0.36-0.31-0.74-0.63-1.11-0.93c-0.37-0.31-0.76-0.63-1.15-0.92c-0.37-0.29-0.75-0.58-1.13-0.86
						c-0.61-0.46-1.23-0.9-1.85-1.33c-0.15-0.11-0.3-0.21-0.46-0.31c-0.5-0.34-1.01-0.68-1.52-0.99c-0.31-0.21-0.64-0.4-0.96-0.6
						c-0.41-0.26-0.82-0.5-1.25-0.75c-0.43-0.25-0.85-0.48-1.29-0.72c-0.43-0.24-0.87-0.47-1.3-0.7c-0.33-0.18-0.67-0.34-1-0.5
						c-0.33-0.18-0.68-0.33-1.02-0.49c-0.34-0.17-0.68-0.31-1.02-0.47c-0.86-0.39-1.73-0.76-2.61-1.1s-1.77-0.67-2.67-0.97
						c-0.43-0.16-0.87-0.29-1.31-0.44c-0.47-0.14-0.93-0.28-1.41-0.42c-0.45-0.13-0.91-0.26-1.38-0.37c-0.36-0.1-0.73-0.2-1.1-0.27
						c-0.21-0.05-0.41-0.11-0.62-0.15c-0.35-0.09-0.72-0.17-1.08-0.25c-0.43-0.09-0.87-0.18-1.31-0.26
						c-0.26-0.05-0.52-0.1-0.78-0.14c-0.27-0.05-0.56-0.1-0.84-0.15s-0.56-0.09-0.83-0.13c-0.29-0.05-0.59-0.09-0.89-0.13
						c-0.35-0.05-0.72-0.09-1.07-0.13c-0.38-0.05-0.78-0.09-1.18-0.12c-0.34-0.04-0.7-0.07-1.04-0.09
						c-0.31-0.03-0.63-0.05-0.95-0.07c-0.41-0.03-0.83-0.05-1.25-0.07h-0.01h-0.01h-0.01c-0.01,0-0.02,0-0.03,0
						c-0.03,0-0.05,0-0.08,0c-0.01,0-0.03-0.01-0.04,0c-0.02-0.01-0.03-0.01-0.05-0.01c-0.01,0-0.03,0-0.04,0h-0.01h-0.01"/>
					<path class="st2" d="M117.21,428.75c-1.38,0.26-2.78,0.47-4.19,0.63c-0.03,0.01-0.05,0.01-0.07,0.01
						c-0.04,0.01-0.08,0.02-0.12,0.02c-0.22,0.02-0.43,0.04-0.64,0.06s-0.42,0.04-0.64,0.06c-0.26,0.03-0.5,0.05-0.76,0.06"/>
					<path class="st2" d="M108.61,429.72L108.61,429.72h-0.02h-0.01c-0.01,0-0.02,0-0.03,0c-0.03,0-0.05,0-0.08,0
						c-0.01,0-0.01,0-0.02,0c-0.01,0-0.01,0.01-0.02,0c-0.01,0.01-0.01,0.01-0.02,0.01c-0.02,0-0.04,0-0.06,0c-0.01,0-0.01,0-0.02,0
						h-0.01"/>
					<path class="st2" d="M108.32,429.73L108.32,429.73c0.02,0,0.02,0,0.03,0c0.01-0.01,0.02-0.01,0.03-0.01"/>
					<path class="st2" d="M127.71,422.55c7.26-4.17,13.57-9.76,18.58-16.33c3.42-4.48,6.25-9.43,8.36-14.71
						c1.66-4.13,2.88-8.47,3.62-12.95c0.32-1.9,0.55-3.83,0.7-5.78c0.1-1.44,0.15-2.89,0.15-4.36c0-1.46-0.05-2.91-0.15-4.36
						c-0.15-1.95-0.37-3.87-0.7-5.78c-0.74-4.48-1.96-8.82-3.62-12.95c-2.11-5.29-4.93-10.23-8.36-14.71
						c-6.72-8.82-15.76-15.84-26.3-20.09c-3.63-1.47-7.45-2.61-11.4-3.36c-0.01-0.01-0.02-0.01-0.03-0.01
						c-0.01,0-0.02-0.01-0.03-0.01c-0.02,0-0.05-0.01-0.07-0.01c-0.03-0.01-0.06-0.01-0.09-0.02c-0.01,0-0.03,0-0.04,0v-0.01h-0.01
						h-0.01"/>
					<polyline class="st2" points="108.58,429.72 108.6,429.72 108.6,429.73 108.61,429.73 					"/>
					<path class="st2" d="M108.41,429.61c-0.02-0.01-0.04-0.02-0.05-0.03"/>
					<path class="st2" d="M79.57,394.77c-0.74-1.87-1.37-3.71-1.92-5.48c-1.32-4.25-2.17-8.14-2.7-11.39
						c-0.87-5.31-0.93-8.9-0.93-9.48c0-3.27,0.23-6.4,0.64-9.4c0.54-3.98,1.41-7.74,2.53-11.27c2.07-6.53,4.97-12.28,8.2-17.25
						c2.75-4.25,5.73-7.92,8.62-11.02c4.28-4.6,8.34-7.93,11.09-9.97c1.58-1.18,2.74-1.93,3.26-2.27c0.02-0.01,0.03-0.02,0.05-0.03
						c0.02-0.01,0.04-0.02,0.06-0.03c0.03-0.02,0.05-0.03,0.07-0.05c0.02-0.01,0.04-0.02,0.05-0.03h0.01l0.01-0.01"/>
					<polyline class="st2" points="108.6,429.72 108.61,429.72 108.61,429.73 					"/>
					<path class="st2" d="M88.72,378.49c-0.44-4.36-0.52-7.83-0.52-10.07c0-4.2,0.26-8.23,0.73-12.08
						c0.55-4.62,1.39-8.98,2.44-13.05c1.51-5.94,3.45-11.29,5.51-15.97c1.49-3.41,3.05-6.47,4.56-9.16
						c2.02-3.61,3.93-6.53,5.47-8.72c0.54-0.77,1.04-1.46,1.47-2.05c0.03-0.03,0.05-0.07,0.08-0.1c0.02-0.02,0.03-0.05,0.05-0.07
						c0.02-0.02,0.04-0.05,0.05-0.07c0.01-0.01,0.02-0.03,0.03-0.04h0.01v-0.01"/>
					<line class="st2" x1="108.61" y1="429.73" x2="108.61" y2="429.72"/>
					<path class="st2" d="M100.76,371.9c-0.02-1.19-0.03-2.35-0.03-3.48c0-4.54,0.13-8.95,0.36-13.21
						c0.26-4.67,0.64-9.17,1.11-13.48c0.6-5.41,1.35-10.52,2.2-15.31c0.53-2.99,1.09-5.86,1.68-8.59c0.62-2.94,1.28-5.74,1.94-8.39
						c0.15-0.6,0.29-1.19,0.45-1.77c0.02-0.1,0.04-0.2,0.07-0.28c0.01-0.05,0.02-0.09,0.03-0.13c0.01-0.03,0.02-0.06,0.03-0.09
						c0-0.02,0-0.03,0.01-0.05v-0.01"/>
					<path class="st2" d="M47.16,368.56c0-0.05,0-0.09,0.01-0.14c0-0.03,0-0.05,0-0.08c0-0.01,0-0.02,0-0.03c0-0.01,0-0.01,0-0.02
						c0.67-16.53,7.98-31.4,19.27-42.07c8.34-7.87,18.86-13.45,30.51-15.69c2.67-0.52,5.39-0.86,8.16-1.01
						c0.6-0.04,1.21-0.06,1.81-0.08c0.36-0.01,0.73-0.02,1.1-0.01c0.15-0.01,0.3-0.01,0.45-0.01s0.29,0,0.44,0.01
						c0.37-0.01,0.75,0,1.11,0.01c0.61,0.02,1.22,0.04,1.81,0.08c2.77,0.15,5.49,0.49,8.16,1.01c11.67,2.25,22.23,7.86,30.59,15.77
						c11.25,10.66,18.52,25.5,19.19,41.98c0,0.01,0,0.01,0,0.02c0,0.01,0,0.02,0,0.03c0,0.03,0,0.05,0,0.08
						c0.01,0.05,0.01,0.09,0.01,0.14"/>
					<path class="st2" d="M169.78,368.56c0-0.01,0-0.02-0.01-0.03c0-0.01,0-0.02,0-0.03c-0.01-0.03-0.01-0.05-0.02-0.08
						c0-0.01,0-0.03-0.01-0.04c0-0.02,0-0.03-0.01-0.05c0-0.01,0-0.02,0-0.03c-0.77-3.94-1.9-7.75-3.36-11.37
						c-4.24-10.54-11.25-19.58-20.07-26.31c-6.86-5.24-14.8-9.08-23.37-11.13c-2.43-0.59-4.91-1.03-7.44-1.32
						c-1.53-0.17-3.07-0.28-4.63-0.34c-0.79-0.03-1.59-0.05-2.39-0.05s-1.6,0.02-2.39,0.05c-1.56,0.06-3.1,0.18-4.63,0.34
						c-2.52,0.29-5,0.74-7.44,1.32c-8.56,2.05-16.5,5.89-23.36,11.11c-8.82,6.73-15.84,15.78-20.09,26.33
						c-1.46,3.62-2.59,7.43-3.35,11.37c0,0.01,0,0.02,0,0.03c-0.01,0.02-0.01,0.03-0.01,0.05c-0.01,0.01-0.01,0.03-0.01,0.04
						c-0.01,0.03-0.01,0.05-0.02,0.08c0,0.01,0,0.02,0,0.03c-0.01,0.01-0.01,0.02-0.01,0.03"/>
					<path class="st2" d="M169.78,368.56L169.78,368.56c-0.01-0.02-0.01-0.02-0.01-0.03c-0.01-0.02-0.02-0.05-0.03-0.07
						c0-0.01-0.01-0.03-0.01-0.04c-0.01-0.02-0.02-0.04-0.03-0.06c0-0.01-0.01-0.03-0.01-0.04c-0.75-1.94-1.58-3.84-2.5-5.67
						c-3.24-6.5-7.49-12.34-12.54-17.31c-6.56-6.5-14.44-11.58-23.1-14.83c-3.71-1.4-7.55-2.47-11.51-3.18
						c-2.47-0.45-4.97-0.76-7.5-0.91c-1.35-0.09-2.71-0.13-4.07-0.13c-1.36,0-2.72,0.04-4.07,0.13c-2.53,0.16-5.04,0.46-7.51,0.91
						c-3.95,0.71-7.8,1.78-11.5,3.18c-8.66,3.26-16.54,8.33-23.1,14.81c-5.04,5-9.31,10.84-12.55,17.35
						c-0.91,1.82-1.75,3.72-2.49,5.65c0,0.01-0.01,0.03-0.01,0.04c-0.01,0.02-0.02,0.04-0.03,0.06c0,0.01-0.01,0.03-0.01,0.04
						c-0.01,0.02-0.02,0.05-0.03,0.07c0,0.01,0,0.01,0,0.02l-0.01,0.01"/>
					<path class="st2" d="M169.78,368.56L169.78,368.56c-0.02-0.02-0.03-0.04-0.05-0.05c0-0.01-0.01-0.02-0.03-0.03
						c-0.01-0.02-0.03-0.04-0.05-0.06c-0.02-0.02-0.04-0.04-0.06-0.06c-0.47-0.52-1.2-1.29-2.18-2.27c-2.01-1.99-5.08-4.8-9.14-7.81
						c-4.82-3.57-11.03-7.43-18.52-10.54c-4.31-1.8-9.05-3.35-14.19-4.45c-3.43-0.75-7.03-1.29-10.82-1.57
						c-2.04-0.17-4.13-0.25-6.27-0.25s-4.23,0.08-6.27,0.25c-3.79,0.28-7.4,0.82-10.83,1.57c-5.14,1.11-9.88,2.66-14.18,4.45
						c-7.49,3.11-13.7,6.96-18.52,10.54c-4.06,3.01-7.14,5.83-9.15,7.82c-0.97,0.96-1.7,1.74-2.17,2.26
						c-0.02,0.02-0.04,0.04-0.05,0.06h-0.01c-0.02,0.02-0.04,0.04-0.05,0.06c-0.02,0.01-0.03,0.02-0.03,0.03
						c-0.02,0.01-0.03,0.03-0.04,0.04l-0.01,0.01"/>
					<path class="st2" d="M169.78,368.56L169.78,368.56c-0.02-0.01-0.04-0.02-0.05-0.02c-0.01-0.01-0.03-0.02-0.04-0.02
						c-0.03-0.02-0.07-0.03-0.1-0.04c-0.04-0.03-0.08-0.05-0.12-0.06c-0.68-0.31-1.35-0.62-2.02-0.92c-2.87-1.27-5.7-2.41-8.49-3.43
						c-5.8-2.15-11.4-3.8-16.69-5.06c-5.07-1.21-9.86-2.06-14.28-2.66c-4.45-0.61-8.53-0.95-12.15-1.14
						c-2.74-0.14-5.21-0.19-7.38-0.19c-2.51,0-4.97,0.07-7.38,0.19c-4.23,0.22-8.29,0.61-12.16,1.14
						c-5.08,0.69-9.85,1.61-14.27,2.68c-6.3,1.49-11.89,3.27-16.69,5.04c-3.19,1.18-6.03,2.35-8.5,3.44
						c-0.7,0.31-1.37,0.62-2.01,0.91c-0.04,0.02-0.08,0.03-0.12,0.06c-0.03,0.01-0.07,0.02-0.1,0.04c-0.02,0.01-0.03,0.01-0.04,0.02
						c-0.01,0-0.03,0.01-0.04,0.01l-0.01,0.01"/>
					<path class="st2" d="M47.16,368.28c0,0.05,0,0.09,0.01,0.14c0,0.03,0,0.05,0,0.08c0,0.01,0,0.02,0,0.03c0,0.01,0,0.01,0,0.02
						c0.67,16.53,7.98,31.4,19.27,42.07c7.45,7.02,16.62,12.21,26.78,14.84"/>
					<path class="st2" d="M123.72,425.46c10.19-2.64,19.4-7.87,26.86-14.93c11.25-10.66,18.52-25.5,19.19-41.98
						c0-0.01,0-0.01,0-0.02c0-0.01,0-0.02,0-0.03c0-0.03,0-0.05,0-0.08c0.01-0.05,0.01-0.09,0.01-0.14"/>
					<path class="st2" d="M169.78,368.28c0,0.01,0,0.02-0.01,0.03c0,0.01,0,0.02,0,0.03c-0.01,0.03-0.01,0.05-0.02,0.08
						c0,0.01,0,0.03-0.01,0.04c0,0.02,0,0.03-0.01,0.05c0,0.01,0,0.02,0,0.03c-0.77,3.94-1.9,7.75-3.36,11.37
						c-4.24,10.54-11.25,19.58-20.07,26.31c-3.51,2.69-7.31,5-11.33,6.9"/>
					<path class="st2" d="M81.97,413.11c-4.02-1.88-7.81-4.2-11.32-6.88c-8.82-6.73-15.84-15.78-20.09-26.33
						c-1.46-3.62-2.59-7.43-3.35-11.37c0-0.01,0-0.02,0-0.03c-0.01-0.02-0.01-0.03-0.01-0.05c-0.01-0.01-0.01-0.03-0.01-0.04
						c-0.01-0.03-0.01-0.05-0.02-0.08c0-0.01,0-0.02,0-0.03c-0.01-0.01-0.01-0.02-0.01-0.03"/>
					<path class="st2" d="M169.78,368.28L169.78,368.28c-0.01,0.02-0.01,0.02-0.01,0.03c-0.01,0.02-0.02,0.05-0.03,0.07
						c0,0.01-0.01,0.03-0.01,0.04c-0.01,0.02-0.02,0.04-0.03,0.06c0,0.01-0.01,0.03-0.01,0.04c-0.75,1.94-1.58,3.84-2.5,5.67
						c-3.24,6.5-7.49,12.34-12.54,17.31c-4.97,4.93-10.69,9.03-16.95,12.14"/>
					<path class="st2" d="M79.24,403.66c-6.25-3.12-11.98-7.22-16.95-12.13c-5.04-5-9.31-10.84-12.55-17.35
						c-0.91-1.82-1.75-3.72-2.49-5.65c0-0.01-0.01-0.03-0.01-0.04c-0.01-0.02-0.02-0.04-0.03-0.06c0-0.01-0.01-0.03-0.01-0.04
						c-0.01-0.02-0.02-0.05-0.03-0.07c0-0.01,0-0.01,0-0.02l-0.01-0.01"/>
					<path class="st2" d="M169.78,368.28L169.78,368.28c-0.02,0.02-0.03,0.04-0.05,0.05c0,0.01-0.01,0.02-0.03,0.03
						c-0.01,0.02-0.03,0.04-0.05,0.06c-0.02,0.02-0.04,0.04-0.06,0.06c-0.47,0.52-1.2,1.29-2.18,2.27c-2.01,1.99-5.08,4.8-9.14,7.81
						c-4.91,3.65-11.28,7.58-18.98,10.73c-1,0.41-2.03,0.8-3.08,1.19"/>
					<path class="st2" d="M80.73,390.47c-1.05-0.38-2.08-0.77-3.08-1.19c-7.7-3.15-14.07-7.08-18.98-10.73
						c-4.06-3.01-7.14-5.83-9.15-7.82c-0.97-0.96-1.7-1.74-2.17-2.26c-0.02-0.02-0.04-0.04-0.05-0.06h-0.01
						c-0.02-0.02-0.04-0.04-0.05-0.06c-0.02-0.01-0.03-0.02-0.03-0.03c-0.02-0.01-0.03-0.03-0.04-0.04l-0.01-0.01"/>
					<path class="st2" d="M169.78,368.28L169.78,368.28c-0.02,0.01-0.04,0.02-0.05,0.02c-0.01,0.01-0.03,0.02-0.04,0.02
						c-0.03,0.02-0.07,0.03-0.1,0.04c-0.04,0.03-0.08,0.05-0.12,0.06c-0.68,0.31-1.35,0.62-2.02,0.92c-2.87,1.27-5.7,2.41-8.49,3.43
						c-5.92,2.19-11.6,3.86-16.98,5.13c-4.22,0.99-8.25,1.75-12.03,2.32"/>
					<path class="st2" d="M86.98,380.21c-4.25-0.63-8.26-1.42-12.03-2.32c-6.42-1.52-12.1-3.33-16.98-5.12
						c-3.19-1.18-6.03-2.35-8.5-3.44c-0.7-0.31-1.37-0.62-2.01-0.91c-0.04-0.02-0.08-0.03-0.12-0.06c-0.03-0.01-0.07-0.02-0.1-0.04
						c-0.02-0.01-0.03-0.01-0.04-0.02c-0.01,0-0.03-0.01-0.04-0.01l-0.01-0.01"/>
					<path class="st2" d="M108.32,307.11L108.32,307.11h0.02c0.01,0,0.03,0,0.04,0c0.03,0,0.06,0,0.09,0.01c0.03,0,0.05,0,0.08,0
						c0.01,0,0.02,0,0.03,0h0.01h0.01h0.01c15.84,0.65,30.15,7.38,40.71,17.88"/>
					<path class="st2" d="M149.32,411.84c-1.07,1.06-2.18,2.09-3.32,3.06c-0.36,0.32-0.74,0.64-1.11,0.93
						c-0.37,0.31-0.76,0.63-1.15,0.92c-0.37,0.29-0.75,0.59-1.13,0.86c-0.42,0.31-0.84,0.63-1.28,0.93
						c-0.34,0.25-0.69,0.48-1.04,0.72c-0.5,0.34-1.01,0.68-1.52,0.99c-0.31,0.22-0.64,0.41-0.96,0.6c-0.41,0.26-0.82,0.51-1.25,0.75
						c-0.85,0.49-1.72,0.96-2.59,1.41c-0.33,0.18-0.67,0.34-1,0.5c-0.68,0.34-1.35,0.66-2.04,0.96c-0.86,0.38-1.73,0.76-2.61,1.1
						c-0.44,0.17-0.88,0.34-1.32,0.5c-2.29,0.83-4.63,1.54-7.03,2.1"/>
					<path class="st2" d="M117.21,428.75c-1.38,0.26-2.78,0.47-4.19,0.63"/>
					<path class="st2" d="M110.8,429.58c-0.31,0.03-0.63,0.06-0.95,0.07"/>
					<path class="st2" d="M108.61,429.72L108.61,429.72h-0.02h-0.01c-0.01,0-0.02,0-0.03,0c-0.03,0-0.05,0-0.08,0
						c-0.01,0-0.01,0-0.02,0c-0.01,0-0.01,0.01-0.02,0c-0.01,0.01-0.01,0.01-0.02,0.01c-0.02,0-0.04,0-0.06,0c-0.01,0-0.01,0-0.02,0
						h-0.01"/>
					<path class="st2" d="M108.57,429.58c-0.01,0.01-0.03,0.02-0.05,0.03"/>
					<polyline class="st2" points="108.32,429.73 108.33,429.73 108.33,429.72 108.34,429.72 					"/>
					<path class="st2" d="M137.37,394.76c0.74-1.87,1.37-3.71,1.92-5.47c1.32-4.25,2.16-8.13,2.7-11.38
						c0.87-5.31,0.93-8.9,0.93-9.49c0-3.27-0.23-6.41-0.64-9.42c-0.54-3.98-1.41-7.73-2.53-11.25c-2.07-6.53-4.97-12.28-8.2-17.25
						c-2.75-4.25-5.73-7.92-8.62-11.02c-4.28-4.6-8.33-7.93-11.09-9.97c-1.59-1.18-2.75-1.93-3.27-2.27
						c-0.02-0.01-0.04-0.02-0.05-0.03c-0.02-0.01-0.03-0.02-0.05-0.03c-0.03-0.02-0.06-0.03-0.08-0.05
						c-0.02-0.01-0.04-0.02-0.05-0.03c-0.01,0-0.01,0-0.01,0v-0.01h-0.01"/>
					<path class="st2" d="M108.41,429.61c-0.02,0.02-0.04,0.05-0.05,0.07"/>
					<polyline class="st2" points="108.33,429.72 108.32,429.72 108.32,429.73 					"/>
					<path class="st2" d="M128.2,378.48c0.44-4.36,0.52-7.82,0.52-10.06c0-4.2-0.26-8.23-0.73-12.08
						c-0.55-4.62-1.39-8.98-2.44-13.05c-1.51-5.94-3.45-11.29-5.51-15.97c-1.49-3.41-3.04-6.47-4.55-9.16
						c-2.02-3.61-3.94-6.53-5.47-8.72c-0.55-0.78-1.05-1.47-1.48-2.06c-0.03-0.03-0.06-0.06-0.07-0.09
						c-0.03-0.02-0.04-0.05-0.06-0.07c-0.02-0.02-0.04-0.05-0.05-0.07c-0.01-0.01-0.02-0.03-0.03-0.04h-0.01v-0.01"/>
					<line class="st2" x1="108.32" y1="429.73" x2="108.32" y2="429.72"/>
					<path class="st2" d="M116.18,371.9c0.02-1.19,0.03-2.35,0.03-3.48c0-4.54-0.13-8.95-0.36-13.21
						c-0.26-4.67-0.64-9.17-1.11-13.48c-0.61-5.41-1.35-10.52-2.2-15.31c-0.53-2.99-1.09-5.86-1.68-8.59
						c-0.63-2.94-1.29-5.74-1.95-8.39c-0.15-0.6-0.29-1.19-0.44-1.77c-0.03-0.09-0.05-0.19-0.08-0.27c-0.01-0.05-0.02-0.1-0.03-0.14
						c-0.01-0.03-0.02-0.06-0.03-0.09c0-0.02,0-0.03-0.01-0.05v-0.01"/>
				</g>
				<path class="st3" d="M108.33,429.67c0,0.02,0,0.03-0.01,0.05c-1.41-0.06-2.82-0.17-4.2-0.31c1.37,0.21,2.78,0.31,4.2,0.32h0.01
					c0.01,0,0.01,0,0.02,0h0.06h0.15c0.01,0,0.01,0,0.02,0c0.01,0,0.01,0,0.02,0h0.01c1.43-0.01,2.84-0.12,4.23-0.32
					c0.04,0,0.08-0.01,0.12-0.02c-0.25,0.03-0.5,0.05-0.76,0.08c-0.21,0.02-0.42,0.04-0.64,0.06c-0.26,0.03-0.5,0.05-0.76,0.06
					c-0.31,0.03-0.63,0.05-0.95,0.07c-0.41,0.03-0.83,0.05-1.25,0.07c-0.01-0.02-0.01-0.03-0.01-0.05"/>
			</g>
			<path class="st4" d="M108.6,429.67c0,0.02,0,0.03,0.01,0.05c0.41-0.02,0.83-0.04,1.25-0.07c0.32-0.02,0.64-0.04,0.95-0.07
				c0.26-0.01,0.5-0.03,0.76-0.06c0.22-0.02,0.43-0.04,0.64-0.06c0.26-0.03,0.51-0.05,0.76-0.08c0.02,0,0.04,0,0.07-0.01
				c1.01-0.16,2.01-0.36,2.99-0.63"/>
			<path class="st4" d="M119.97,427.38c1.29-0.55,2.55-1.19,3.74-1.91c0.01,0,0.01,0,0.01-0.01c1.41-0.85,2.76-1.83,3.99-2.91
				c3.02-2.6,5.49-5.81,7.25-9.44c1.41-2.91,2.36-6.11,2.74-9.47c0.13-1.1,0.2-2.22,0.2-3.35c0-1.89-0.18-3.75-0.53-5.54
				c-0.27-1.47-0.67-2.9-1.16-4.29c-1.36-3.86-3.5-7.33-6.25-10.25c-0.55-0.61-1.14-1.2-1.76-1.74c-3.38-3.07-7.49-5.36-12.03-6.58
				c-2.46-0.68-5.04-1.03-7.71-1.03c-2.67,0-5.25,0.35-7.71,1.03c-4.54,1.23-8.64,3.51-12.04,6.59c-0.61,0.54-1.2,1.11-1.75,1.72
				c-2.74,2.92-4.89,6.41-6.25,10.26c-0.49,1.38-0.88,2.82-1.16,4.3c-0.35,1.79-0.53,3.64-0.53,5.53c0,1.14,0.07,2.26,0.2,3.35
				c0.37,3.35,1.32,6.54,2.74,9.46c1.76,3.64,4.24,6.86,7.27,9.46c1.24,1.08,2.56,2.04,3.97,2.89c0,0.01,0,0.01,0.01,0.01
				c1.32,0.8,2.73,1.51,4.19,2.1"/>
			<path class="st4" d="M100.94,428.75c0.99,0.27,2.01,0.48,3.04,0.64c0.05,0.01,0.09,0.02,0.14,0.02c1.38,0.15,2.79,0.26,4.2,0.31
				c0.01-0.02,0.01-0.03,0.01-0.05"/>
			<path class="st4" d="M100.94,428.75c0.99,0.27,2.01,0.48,3.04,0.64c0.05,0.01,0.09,0.02,0.14,0.02c1.38,0.15,2.79,0.26,4.2,0.31
				h0.01h0.01h0.04 M108.55,429.72h0.03h0.02h0.01c0.41-0.02,0.83-0.04,1.25-0.07c0.32-0.02,0.64-0.04,0.95-0.07
				c0.26-0.01,0.5-0.03,0.76-0.06c0.22-0.02,0.43-0.04,0.64-0.06c0.26-0.03,0.51-0.05,0.76-0.08c0.02,0,0.04,0,0.07-0.01
				c1.01-0.16,2.01-0.36,2.99-0.63 M116.01,428.75c-0.98,0.26-1.98,0.47-2.99,0.63c-0.03,0.01-0.05,0.01-0.07,0.01
				c-0.25,0.03-0.5,0.05-0.76,0.08c-0.21,0.02-0.42,0.04-0.64,0.06c-0.26,0.03-0.5,0.05-0.76,0.06c-0.31,0.03-0.63,0.05-0.95,0.07
				c-0.41,0.03-0.83,0.05-1.25,0.07c-0.01-0.02-0.01-0.03-0.01-0.05 M108.33,429.67c0,0.02,0,0.03-0.01,0.05
				c-1.41-0.06-2.82-0.17-4.2-0.31c-0.05,0-0.09-0.01-0.14-0.02c-1.03-0.16-2.05-0.36-3.04-0.64 M108.47,306.13
				c-34.14,0-61.8,27.67-61.8,61.8c0,30.35,21.89,55.6,50.74,60.81v-37.27h22.56v37.18c28.63-5.39,50.29-30.53,50.29-60.72
				C170.27,333.8,142.6,306.13,108.47,306.13z M97.46,428.75c3.52,0.64,7.15,0.97,10.86,0.98h0.01c0.01,0,0.01,0,0.02,0h0.21
				c0.01,0,0.01,0,0.02,0s0.01,0,0.02,0h0.01c3.71-0.01,7.34-0.34,10.86-0.98H97.46z"/>
			<path class="st4" d="M119.97,391.47v37.18c-0.17,0.04-0.33,0.07-0.51,0.1h-22c-0.02,0-0.03,0-0.05-0.01v-37.27H119.97z"/>
		</g>
		<path class="st5" d="M97.46,428.75h-0.05v-0.01C97.43,428.75,97.44,428.75,97.46,428.75z"/>
		<path class="st5" d="M119.97,428.65v0.1h-0.51C119.64,428.72,119.81,428.69,119.97,428.65z"/>
	</g>
</g>
</svg>
