<svg width="69" height="69" viewBox="0 0 69 69" fill="none" xmlns="http://www.w3.org/2000/svg">
<path d="M0.748657 34.7695H2.00272H6.84428H11.7732H16.2217H20.5766H24.4448H28.4254H31.7009H36.268H40.6666H43.9483H47.9227H51.7909H56.1458H59.8519H60.5943H65.5295H67.5197" stroke="black" stroke-width="0.2158" stroke-miterlimit="10"/>
<path d="M31.8757 68.3983C31.0833 68.3042 30.2972 68.1914 29.5236 68.0472" stroke="black" stroke-width="0.2158" stroke-miterlimit="10"/>
<path d="M34.4088 0.946503C34.3839 0.946503 34.3589 0.946503 34.334 0.952771C34.3277 0.952771 34.3152 0.946503 34.3152 0.952771C34.3028 0.952771 34.2965 0.952771 34.2903 0.952771C34.284 0.952771 34.2716 0.952771 34.2716 0.952771H34.2653H34.2529C25.2248 1.32886 17.0953 5.31542 11.2555 11.4896C6.87559 16.1092 3.78098 21.9574 2.5394 28.4324C2.33351 29.4729 2.18377 30.526 2.08394 31.5978C2.02779 32.2247 1.98412 32.8515 1.95916 33.4908C1.94668 33.7478 1.94044 34.0048 1.94044 34.2618C1.9342 34.4311 1.9342 34.6003 1.9342 34.7633C1.9342 34.9262 1.9342 35.1018 1.94044 35.2647C1.94044 35.5217 1.95292 35.785 1.95916 36.0357C1.97788 36.6751 2.02155 37.3019 2.08394 37.9287C2.18377 39.0006 2.33351 40.0536 2.5394 41.0941C3.78098 47.5754 6.87559 53.4236 11.2555 58.0432C15.7726 62.8133 21.6561 66.2859 28.2633 67.784" stroke="black" stroke-width="0.2158" stroke-miterlimit="10"/>
<path d="M34.2528 68.58H34.2653C34.2715 68.58 34.284 68.58 34.284 68.58C34.2965 68.58 34.3027 68.58 34.309 68.58C34.3152 68.5863 34.3152 68.58 34.3214 68.58C34.3277 68.58 34.3277 68.58 34.3339 68.58C34.3526 68.5863 34.3651 68.5863 34.3838 68.5863C34.3901 68.5863 34.3901 68.5863 34.3963 68.5863C34.4025 68.5863 34.4025 68.5863 34.4088 68.5863H34.415" stroke="black" stroke-width="0.2158" stroke-miterlimit="10"/>
<path d="M34.259 68.555C34.2653 68.5612 34.2715 68.5612 34.2777 68.5612C34.284 68.5612 34.2902 68.5675 34.2965 68.5675C34.3152 68.5675 34.3214 68.5738 34.3401 68.5738" stroke="black" stroke-width="0.2158" stroke-miterlimit="10"/>
<path d="M34.3776 68.58H34.3963V68.5863C34.4025 68.5863 34.4025 68.5863 34.4088 68.5863H34.415" stroke="black" stroke-width="0.2158" stroke-miterlimit="10"/>
<path d="M23.7773 64.6374C19.7905 62.3307 16.3278 59.253 13.5701 55.63C11.6921 53.1541 10.1386 50.4274 8.9781 47.5127C8.06719 45.2311 7.39336 42.8367 6.98782 40.3608C6.81312 39.314 6.68834 38.2484 6.60723 37.1765C6.55108 36.3805 6.52612 35.5781 6.52612 34.7758C6.52612 33.9735 6.55108 33.1712 6.60723 32.3751C6.68834 31.297 6.81312 30.2377 6.98782 29.1909C7.39336 26.715 8.06719 24.3205 8.9781 22.0389C10.1386 19.1242 11.6921 16.3975 13.5701 13.9216C17.2637 9.06379 22.2238 5.19633 28.0074 2.85203C29.9977 2.04344 32.0878 1.41035 34.259 0.996654C34.2653 0.990386 34.2715 0.990386 34.2777 0.990386C34.284 0.990386 34.2902 0.984118 34.2965 0.984118C34.3152 0.984118 34.3214 0.97785 34.3401 0.97785C34.3588 0.971582 34.3651 0.971582 34.3838 0.965314C34.39 0.965314 34.3963 0.965314 34.4025 0.965314H34.4088C34.415 0.959045 34.415 0.959045 34.4212 0.959045" stroke="black" stroke-width="0.2158" stroke-miterlimit="10"/>
<path d="M40.6541 67.7276C41.9768 67.4204 43.2621 67.0318 44.5162 66.568C44.7595 66.4802 45.0028 66.3862 45.2461 66.2922C45.7328 66.1041 46.207 65.8973 46.6811 65.6841C47.0555 65.5149 47.4298 65.3457 47.8042 65.1514C47.9851 65.0636 48.1723 64.9758 48.3532 64.8756C48.8336 64.6248 49.3078 64.3678 49.7757 64.0983C50.0066 63.9604 50.2312 63.8288 50.462 63.6846C50.6367 63.578 50.8177 63.4652 50.9924 63.3524C51.2731 63.1769 51.5539 62.9951 51.8284 62.8071C52.0218 62.6754 52.209 62.5501 52.4024 62.4122C52.6395 62.2429 52.8703 62.0737 53.1012 61.8982C53.3133 61.7415 53.513 61.5848 53.7189 61.4218C53.9372 61.2588 54.1431 61.0833 54.349 60.9141C54.5549 60.7448 54.7608 60.5756 54.9604 60.4001C55.5844 59.8673 56.1958 59.2969 56.7823 58.7139C57.0131 58.482 57.244 58.2376 57.4748 57.9931C61.8297 53.3797 64.9056 47.5503 66.141 41.1004C66.3406 40.0661 66.4903 39.0131 66.5964 37.9475C66.6526 37.3207 66.6962 36.6876 66.7212 36.0482C66.7337 35.7913 66.7399 35.5343 66.7399 35.2773C66.7461 35.108 66.7462 34.9388 66.7462 34.7695C66.7462 34.6003 66.7461 34.4311 66.7399 34.2618C66.7399 34.0048 66.7274 33.7416 66.7212 33.4908C66.7025 32.8515 66.6588 32.2184 66.5964 31.5916C66.4966 30.526 66.3406 29.4729 66.141 28.4387C64.9056 21.9887 61.8297 16.1593 57.4748 11.546C57.244 11.3015 57.0131 11.0571 56.7823 10.8251C56.1958 10.2422 55.5844 9.67179 54.9604 9.139C54.7608 8.96349 54.5549 8.79425 54.349 8.62501C54.1431 8.4495 53.9372 8.28026 53.7189 8.11729C53.513 7.95432 53.3071 7.79761 53.1012 7.64091C52.7643 7.38391 52.4274 7.14572 52.0842 6.90753C52.0031 6.85112 51.9158 6.7947 51.8284 6.73202C51.5539 6.54398 51.2731 6.35593 50.9924 6.18669C50.8177 6.07386 50.643 5.96731 50.462 5.85448C50.2374 5.71658 50.0066 5.57868 49.7757 5.44078C49.5387 5.30288 49.3078 5.17752 49.0707 5.04588C48.8336 4.91425 48.5903 4.78889 48.3532 4.66353C48.1723 4.56324 47.9851 4.47548 47.8042 4.38773C47.6232 4.28744 47.4298 4.20595 47.2427 4.1182C47.0555 4.02417 46.8683 3.94269 46.6811 3.8612C46.207 3.64181 45.7328 3.4475 45.2461 3.25319C44.7595 3.06514 44.2791 2.88337 43.7799 2.72039C43.5429 2.63264 43.2995 2.55742 43.0562 2.47594C42.8004 2.40072 42.5446 2.31923 42.2826 2.24401C42.033 2.17506 41.7834 2.10611 41.5214 2.03716C41.3217 1.98075 41.1221 1.93061 40.9162 1.88673C40.8039 1.86166 40.6916 1.83031 40.5793 1.80524C40.3859 1.7551 40.1862 1.71122 39.9866 1.66734C39.7495 1.6172 39.5061 1.56705 39.2628 1.52317C39.1256 1.4981 38.9758 1.46676 38.8323 1.44796C38.6826 1.40408 38.5266 1.37901 38.3706 1.35393C38.2146 1.32886 38.0649 1.30379 37.9152 1.28498C37.753 1.25364 37.5907 1.23484 37.4223 1.20977C37.2289 1.18469 37.0292 1.15962 36.8358 1.14082C36.6237 1.11574 36.4053 1.09067 36.1869 1.07813C35.9998 1.05933 35.8063 1.04053 35.6129 1.02799C35.4382 1.00918 35.2698 1.00292 35.0888 0.99038C34.8642 0.971575 34.6334 0.965307 34.4025 0.952771H34.3963H34.3901H34.3838C34.3776 0.952771 34.3714 0.952771 34.3651 0.952771C34.3464 0.952771 34.3402 0.952771 34.3214 0.952771C34.3152 0.952771 34.3027 0.946503 34.3027 0.952771C34.2902 0.946503 34.284 0.946503 34.2778 0.946503C34.2715 0.946503 34.259 0.946503 34.259 0.946503H34.2528" stroke="black" stroke-width="0.2158" stroke-miterlimit="10"/>
<path d="M39.138 68.0472C38.3768 68.1851 37.6156 68.3042 36.8358 68.392C36.817 68.3983 36.8108 68.3983 36.7983 68.3983C36.7796 68.4045 36.7546 68.4108 36.7359 68.4108C36.6174 68.4233 36.4988 68.4296 36.3865 68.4421C36.2742 68.4547 36.1557 68.4609 36.0371 68.4735C35.8999 68.4923 35.7626 68.4986 35.6254 68.5048" stroke="black" stroke-width="0.2158" stroke-miterlimit="10"/>
<path d="M34.4088 68.58H34.3963H34.3901C34.3838 68.58 34.3776 68.58 34.3714 68.58C34.3526 68.58 34.3464 68.58 34.3277 68.58C34.3215 68.58 34.3215 68.58 34.3152 68.58C34.309 68.58 34.309 68.5863 34.3027 68.58C34.2965 68.5863 34.2965 68.5863 34.2903 68.5863C34.2778 68.5863 34.2715 68.5863 34.2591 68.5863C34.2528 68.5863 34.2528 68.5863 34.2466 68.5863H34.2528" stroke="black" stroke-width="0.2158" stroke-miterlimit="10"/>
<path d="M34.2528 68.5863C34.2653 68.5863 34.2653 68.5863 34.2715 68.5863C34.2778 68.58 34.284 68.58 34.2902 68.58" stroke="black" stroke-width="0.2158" stroke-miterlimit="10"/>
<path d="M44.903 64.6248C48.8898 62.3244 52.3525 59.2405 55.104 55.6175C56.9819 53.1415 58.5355 50.4149 59.6959 47.5002C60.6069 45.2248 61.2807 42.8304 61.6862 40.3545C61.8609 39.3077 61.9857 38.2421 62.0668 37.1703C62.123 36.3742 62.1479 35.5719 62.1479 34.7695C62.1479 33.9672 62.123 33.1649 62.0668 32.3688C61.9857 31.2907 61.8609 30.2314 61.6862 29.1846C61.2807 26.7087 60.6069 24.3205 59.6959 22.0389C58.5355 19.1242 56.9882 16.3975 55.104 13.9216C51.4166 9.05124 46.4503 5.17752 40.6666 2.83322C38.6763 2.02463 36.58 1.39154 34.4088 0.977843C34.4025 0.971575 34.3963 0.971575 34.3901 0.971575C34.3838 0.971575 34.3776 0.965307 34.3714 0.965307C34.3589 0.965307 34.3464 0.959039 34.3339 0.959039C34.3152 0.952771 34.3027 0.952771 34.284 0.946503C34.2778 0.946503 34.2653 0.946503 34.2653 0.946503H34.259H34.2528" stroke="black" stroke-width="0.2158" stroke-miterlimit="10"/>
<path d="M34.3962 68.58H34.4087V68.5863" stroke="black" stroke-width="0.2158" stroke-miterlimit="10"/>
<path d="M34.3027 68.5236C34.2902 68.5174 34.2839 68.5111 34.2777 68.5048" stroke="black" stroke-width="0.2158" stroke-miterlimit="10"/>
<path d="M18.4678 49.2992C18.0622 48.2649 17.7129 47.2557 17.4134 46.2716C16.6834 43.9273 16.2217 41.7774 15.9347 39.9909C15.4543 37.0637 15.4231 35.0829 15.4231 34.7633C15.4231 32.9643 15.5479 31.2343 15.7725 29.5795C16.0657 27.3856 16.5461 25.3109 17.1638 23.3615C18.2993 19.7573 19.8965 16.5856 21.6685 13.8464C23.1783 11.5021 24.813 9.47748 26.4039 7.77254C28.7499 5.23393 30.9835 3.39736 32.4933 2.27535C33.3606 1.62346 33.997 1.20977 34.284 1.02799C34.2964 1.02172 34.3027 1.01545 34.3089 1.00918C34.3152 1.00918 34.3276 1.00292 34.3339 0.996648C34.3526 0.984112 34.3588 0.977844 34.3713 0.971575C34.3838 0.965307 34.39 0.959039 34.3963 0.952771H34.4025L34.4087 0.946503" stroke="black" stroke-width="0.2158" stroke-miterlimit="10"/>
<path d="M34.4088 68.58V68.5865" stroke="black" stroke-width="0.2158" stroke-miterlimit="10"/>
<path d="M23.4966 40.3231C23.2533 37.9224 23.2096 36.0044 23.2096 34.7633C23.2096 32.4503 23.3469 30.2251 23.6089 28.1002C23.9084 25.5491 24.3763 23.1484 24.9503 20.9044C25.7801 17.6261 26.847 14.6738 27.9763 12.0976C28.7936 10.2171 29.6484 8.52472 30.4782 7.04543C31.5887 5.05215 32.6369 3.44123 33.4854 2.23775C33.7787 1.81151 34.0594 1.42915 34.2903 1.10948C34.309 1.09067 34.3152 1.07187 34.3339 1.05306C34.3464 1.04053 34.3527 1.02799 34.3589 1.01545C34.3714 1.00292 34.3776 0.99038 34.3839 0.977843C34.3901 0.971575 34.3963 0.959039 34.4026 0.959039H34.4088V0.946503" stroke="black" stroke-width="0.2158" stroke-miterlimit="10"/>
<path d="M34.4088 68.5865V68.58" stroke="black" stroke-width="0.2158" stroke-miterlimit="10"/>
<path d="M30.1038 36.6876C30.0913 36.0357 30.0851 35.3901 30.0851 34.7695C30.0851 32.2623 30.1537 29.8365 30.2847 27.4797C30.422 24.9034 30.6341 22.4212 30.8962 20.0456C31.2268 17.062 31.6386 14.2476 32.1003 11.5961C32.3936 9.94759 32.6993 8.36801 33.0237 6.85739C33.3606 5.23393 33.7225 3.69196 34.0906 2.23148C34.1717 1.89926 34.2528 1.57959 34.3402 1.25991C34.3526 1.2035 34.3589 1.15335 34.3776 1.10321C34.3838 1.07813 34.3901 1.05306 34.3963 1.03426C34.4026 1.01545 34.4088 1.00292 34.415 0.984112C34.415 0.971575 34.415 0.965307 34.4213 0.959039V0.946503" stroke="black" stroke-width="0.2158" stroke-miterlimit="10"/>
<path d="M0.673828 34.8448C0.673828 34.8197 0.673828 34.7946 0.680067 34.7695C0.680067 34.7507 0.680067 34.7445 0.680067 34.7257C0.680067 34.7194 0.680067 34.7131 0.680067 34.7069C0.680067 34.7006 0.680067 34.7006 0.680067 34.6943C1.04818 25.5741 5.05993 17.3754 11.2554 11.4833C15.8349 7.14571 21.6123 4.06177 28.0074 2.83321C29.4736 2.54488 30.9648 2.35683 32.4871 2.27535C32.8178 2.25654 33.1485 2.24401 33.4854 2.23147C33.685 2.2252 33.8847 2.21893 34.0906 2.2252C34.1717 2.21893 34.259 2.21893 34.3401 2.21893C34.4212 2.21893 34.5023 2.21893 34.5835 2.2252C34.7893 2.21893 34.9952 2.2252 35.1949 2.23147C35.5318 2.24401 35.8625 2.25027 36.1931 2.27535C37.7093 2.35683 39.2066 2.54488 40.6728 2.83321C47.0804 4.07431 52.8766 7.16452 57.4686 11.5334C63.6453 17.413 67.6383 25.5992 68.0064 34.6943C68.0064 34.7006 68.0064 34.7006 68.0064 34.7069C68.0064 34.7131 68.0064 34.7194 68.0064 34.7257C68.0064 34.7445 68.0064 34.7507 68.0064 34.7695C68.0127 34.7946 68.0127 34.8197 68.0127 34.8448" stroke="black" stroke-width="0.2158" stroke-miterlimit="10"/>
<path d="M68.0002 34.8448C68.0002 34.8385 68.0002 34.8322 67.994 34.826C67.994 34.8197 67.994 34.8134 67.994 34.8072C67.9877 34.7883 67.9877 34.7821 67.9815 34.7633C67.9815 34.757 67.9815 34.7445 67.9752 34.7445C67.9752 34.7319 67.9752 34.7257 67.969 34.7194C67.969 34.7131 67.969 34.7069 67.969 34.7006C67.551 32.5255 66.9271 30.4257 66.1222 28.4262C63.795 22.6156 59.9455 17.6261 55.1039 13.9153C51.3417 11.0257 46.9744 8.90708 42.2763 7.77254C40.9411 7.4466 39.5748 7.20214 38.1959 7.03917C37.3536 6.94514 36.5114 6.88246 35.6566 6.85112C35.2199 6.83232 34.7831 6.82605 34.3401 6.82605C33.8972 6.82605 33.4604 6.83859 33.0237 6.85112C32.1689 6.88246 31.3204 6.95141 30.4844 7.03917C29.0993 7.20214 27.7392 7.4466 26.404 7.77254C21.6997 8.90081 17.3448 11.0195 13.5826 13.9028C8.72855 17.6198 4.87277 22.6156 2.53934 28.4324C1.73449 30.432 1.11682 32.5318 0.698798 34.7069C0.698798 34.7131 0.698798 34.7194 0.698798 34.7257C0.692559 34.7382 0.692559 34.7445 0.692559 34.7507C0.68632 34.7507 0.68632 34.7633 0.68632 34.7695C0.680081 34.7884 0.680081 34.7946 0.673842 34.8134C0.673842 34.8197 0.673842 34.826 0.673842 34.8322C0.667603 34.8385 0.667603 34.8448 0.667603 34.851" stroke="black" stroke-width="0.2158" stroke-miterlimit="10"/>
<path d="M68.0002 34.8447C67.9939 34.8322 67.9939 34.8322 67.9939 34.8259C67.9877 34.8134 67.9815 34.8009 67.9752 34.7883C67.9752 34.7821 67.969 34.7695 67.969 34.7695C67.9627 34.757 67.9565 34.7507 67.9503 34.7382C67.9503 34.7319 67.944 34.7194 67.944 34.7194C67.5322 33.6475 67.0768 32.6007 66.5714 31.5916C64.7933 28.0062 62.4536 24.7843 59.6897 22.0389C56.0897 18.4472 51.766 15.6516 47.0118 13.8527C44.9778 13.0817 42.8628 12.4862 40.6915 12.0976C39.3314 11.8468 37.9588 11.6839 36.5737 11.5961C35.8313 11.546 35.0888 11.5272 34.3401 11.5272C33.5914 11.5272 32.849 11.546 32.1065 11.5961C30.7152 11.6839 29.3363 11.8531 27.9825 12.0976C25.8112 12.4862 23.7024 13.0754 21.6685 13.8527C16.9143 15.6516 12.5905 18.4472 8.98434 22.0263C6.21417 24.7843 3.8745 28.0062 2.09635 31.5978C1.59722 32.607 1.13552 33.6475 0.72998 34.7131C0.72998 34.7194 0.723741 34.7319 0.723741 34.7319C0.717502 34.7445 0.711263 34.7507 0.705024 34.7633C0.705024 34.7695 0.698785 34.7821 0.698785 34.7821C0.692545 34.7946 0.686306 34.8071 0.680067 34.8197C0.680067 34.8259 0.680067 34.8259 0.680067 34.8322L0.673828 34.8385" stroke="black" stroke-width="0.2158" stroke-miterlimit="10"/>
<path d="M68.0002 34.8447C67.9877 34.8322 67.9815 34.8259 67.9752 34.8197C67.9752 34.8134 67.969 34.8071 67.9565 34.8009C67.9503 34.7883 67.9378 34.7821 67.9315 34.7695C67.9253 34.757 67.9128 34.7507 67.9004 34.7382C67.6446 34.4499 67.2452 34.0236 66.7024 33.4908C65.5981 32.3939 63.9136 30.8457 61.68 29.1846C59.0346 27.2164 55.628 25.0852 51.5102 23.374C49.1456 22.3836 46.5376 21.5312 43.7175 20.9169C41.8333 20.5032 39.8555 20.2086 37.7779 20.0519C36.6548 19.9578 35.5131 19.914 34.3339 19.914C33.1609 19.914 32.0129 19.9578 30.8899 20.0519C28.8123 20.2086 26.8282 20.5094 24.944 20.9169C22.1239 21.5312 19.5222 22.3836 17.1576 23.374C13.0398 25.0915 9.63321 27.2164 6.98782 29.1846C4.76045 30.8457 3.06965 32.4002 1.96533 33.4971C1.435 34.0299 1.0357 34.4561 0.773654 34.7445C0.761176 34.757 0.754937 34.7633 0.748698 34.7758H0.742458C0.72998 34.7883 0.723741 34.7946 0.717502 34.8071C0.705024 34.8134 0.698785 34.8197 0.698785 34.8259C0.686306 34.8322 0.680067 34.8447 0.680067 34.8447L0.673828 34.851" stroke="black" stroke-width="0.2158" stroke-miterlimit="10"/>
<path d="M68.0002 34.8448C67.9877 34.8385 67.9814 34.8322 67.9752 34.8322C67.969 34.826 67.9565 34.8197 67.9565 34.8197C67.9378 34.8072 67.9191 34.8009 67.9003 34.8009C67.8816 34.7821 67.8567 34.7758 67.8379 34.7696C67.4636 34.594 67.0955 34.4311 66.7274 34.2618C65.1489 33.5661 63.5953 32.933 62.0668 32.3688C58.8848 31.1842 55.8089 30.2753 52.9077 29.5795C50.1251 28.9151 47.4922 28.445 45.0652 28.1128C42.6194 27.7743 40.3796 27.5862 38.3893 27.4859C36.8857 27.4107 35.5318 27.3857 34.3401 27.3857C32.9613 27.3857 31.6074 27.4233 30.2909 27.4859C27.97 27.605 25.7426 27.8244 23.6151 28.1128C20.8262 28.4888 18.2057 29.0028 15.7787 29.592C12.3222 30.4132 9.25259 31.391 6.61968 32.3751C4.86649 33.027 3.30671 33.6726 1.95282 34.2744C1.57223 34.4499 1.19789 34.6128 0.848496 34.7758C0.829779 34.7884 0.804823 34.7946 0.786105 34.8072C0.767388 34.8134 0.74867 34.8197 0.729953 34.826C0.717475 34.8322 0.711236 34.8322 0.711236 34.8385C0.704997 34.8385 0.692518 34.8448 0.692518 34.8448L0.686279 34.851" stroke="black" stroke-width="0.2158" stroke-miterlimit="10"/>
<path d="M0.673828 34.688C0.673828 34.7131 0.673828 34.7382 0.680067 34.7633C0.680067 34.7821 0.680067 34.7883 0.680067 34.8071C0.680067 34.8134 0.680067 34.8197 0.680067 34.8259C0.680067 34.8322 0.680067 34.8322 0.680067 34.8385C1.04194 43.9524 5.05993 52.1574 11.2554 58.0432C15.342 61.917 20.377 64.7815 25.961 66.2295" stroke="black" stroke-width="0.2158" stroke-miterlimit="10"/>
<path d="M42.713 66.2357C48.3095 64.7815 53.3694 61.8982 57.4623 57.9994C63.639 52.1198 67.6321 43.9336 68.0002 34.8385C68.0002 34.8322 68.0002 34.8322 68.0002 34.8259C68.0002 34.8197 68.0002 34.8134 68.0002 34.8071C68.0002 34.7883 68.0002 34.7821 68.0002 34.7633C68.0064 34.7382 68.0064 34.7131 68.0064 34.688" stroke="black" stroke-width="0.2158" stroke-miterlimit="10"/>
<path d="M68.0002 34.688C68.0002 34.6943 68.0002 34.7006 67.994 34.7069C67.994 34.7131 67.994 34.7194 67.994 34.7257C67.9877 34.7445 67.9877 34.7507 67.9815 34.7695C67.9815 34.7758 67.9815 34.7883 67.9753 34.7883C67.9753 34.8009 67.9753 34.8071 67.969 34.8134C67.969 34.8197 67.969 34.8259 67.969 34.8322C67.551 37.0073 66.9271 39.1071 66.1222 41.1067C63.795 46.9172 59.9455 51.9067 55.1039 55.6175C53.1761 57.103 51.0922 58.3755 48.8835 59.4222" stroke="black" stroke-width="0.2158" stroke-miterlimit="10"/>
<path d="M19.7905 59.4222C17.5818 58.3817 15.5042 57.1093 13.5763 55.63C8.72853 51.913 4.87276 46.9172 2.53933 41.1004C1.73448 39.1008 1.11681 37.001 0.698785 34.8259C0.698785 34.8197 0.698785 34.8134 0.698785 34.8071C0.692545 34.7946 0.692545 34.7883 0.692545 34.7821C0.686306 34.7821 0.686306 34.7695 0.686306 34.7695C0.686306 34.7507 0.686306 34.7382 0.680067 34.7257C0.680067 34.7194 0.680067 34.7131 0.680067 34.7069C0.673828 34.7006 0.673828 34.6943 0.673828 34.688" stroke="black" stroke-width="0.2158" stroke-miterlimit="10"/>
<path d="M68.0001 34.688C67.9939 34.7006 67.9939 34.7006 67.9939 34.7069C67.9877 34.7194 67.9814 34.7319 67.9752 34.7445C67.9752 34.7507 67.9689 34.7633 67.9689 34.7633C67.9627 34.7758 67.9565 34.7821 67.9502 34.7946C67.9502 34.8009 67.944 34.8134 67.944 34.8134C67.5322 35.8853 67.0767 36.9321 66.5714 37.9412C64.7932 41.5266 62.4536 44.7485 59.6896 47.4939C56.9569 50.2143 53.8186 52.4771 50.3809 54.1946" stroke="black" stroke-width="0.2158" stroke-miterlimit="10"/>
<path d="M18.2869 54.2009C14.8554 52.4771 11.7108 50.2206 8.97811 47.5065C6.20794 44.7485 3.86827 41.5266 2.09012 37.935C1.59099 36.9258 1.1293 35.8853 0.723755 34.8197C0.723755 34.8134 0.717515 34.8009 0.717515 34.8009C0.711276 34.7883 0.705037 34.7821 0.698798 34.7695C0.698798 34.7633 0.692559 34.7507 0.692559 34.7507C0.68632 34.7382 0.680081 34.7257 0.673842 34.7131C0.673842 34.7069 0.673842 34.7069 0.673842 34.7006L0.667603 34.6943" stroke="black" stroke-width="0.2158" stroke-miterlimit="10"/>
<path d="M68.0002 34.688C67.9877 34.7006 67.9815 34.7069 67.9752 34.7131C67.9752 34.7194 67.969 34.7257 67.9565 34.7319C67.9503 34.7445 67.9378 34.7507 67.9316 34.7633C67.9253 34.7758 67.9128 34.7821 67.9004 34.7946C67.6446 35.0829 67.2453 35.5092 66.7025 36.042C65.5981 37.1389 63.9136 38.6871 61.68 40.3482C58.9784 42.3603 55.4845 44.5291 51.2606 46.2654C50.7116 46.491 50.1438 46.7104 49.5698 46.9172" stroke="black" stroke-width="0.2158" stroke-miterlimit="10"/>
<path d="M19.1042 46.9298C18.5302 46.7167 17.9624 46.5036 17.4134 46.2779C13.1833 44.5416 9.68936 42.3728 6.99406 40.3607C4.76669 38.6997 3.07589 37.1452 1.97157 36.0482C1.44124 35.5155 1.04194 35.0892 0.779893 34.8009C0.767415 34.7883 0.761176 34.7821 0.754937 34.7695H0.742458C0.72998 34.757 0.723741 34.7507 0.717502 34.7382C0.705024 34.7319 0.698785 34.7257 0.698785 34.7194C0.686306 34.7131 0.680067 34.7006 0.680067 34.7006L0.673828 34.6943" stroke="black" stroke-width="0.2158" stroke-miterlimit="10"/>
<path d="M68.0002 34.688C67.9877 34.6943 67.9815 34.7006 67.9752 34.7006C67.969 34.7069 67.9565 34.7131 67.9565 34.7131C67.9378 34.7257 67.9191 34.7319 67.9003 34.7319C67.8816 34.7507 67.8567 34.757 67.838 34.7633C67.4636 34.9388 67.0955 35.1017 66.7274 35.271C65.1489 35.9668 63.5954 36.5998 62.0668 37.164C58.8162 38.3737 55.6966 39.2889 52.7455 39.9909C50.4308 40.5363 48.2159 40.9562 46.1445 41.2696" stroke="black" stroke-width="0.2158" stroke-miterlimit="10"/>
<path d="M22.5357 41.2696C20.2023 40.9249 17.9999 40.4861 15.9347 39.9909C12.4096 39.151 9.29004 38.1543 6.61346 37.164C4.86026 36.5121 3.30048 35.8665 1.9466 35.2647C1.56601 35.0892 1.19166 34.9262 0.842271 34.7633C0.823553 34.7507 0.798597 34.7445 0.77988 34.7319C0.761162 34.7257 0.742445 34.7194 0.723728 34.7131C0.711249 34.7069 0.70501 34.7069 0.70501 34.7006C0.698771 34.7006 0.686293 34.6943 0.686293 34.6943L0.680054 34.688" stroke="black" stroke-width="0.2158" stroke-miterlimit="10"/>
<path d="M34.259 0.946503H34.2715C34.2778 0.946503 34.2902 0.946503 34.2902 0.946503C34.3089 0.946503 34.3214 0.946503 34.3401 0.952771C34.3589 0.952771 34.3651 0.952771 34.3838 0.952771C34.3901 0.952771 34.3963 0.952771 34.4025 0.952771H34.4088H34.415H34.4212C43.1123 1.31006 50.9674 5.02081 56.7635 10.8189" stroke="black" stroke-width="0.2158" stroke-miterlimit="10"/>
<path d="M56.7635 58.7139C56.177 59.2969 55.5656 59.8673 54.9417 60.4001C54.742 60.5756 54.5361 60.7511 54.3302 60.9141C54.1244 61.0896 53.9185 61.2588 53.7001 61.4218C53.4942 61.5848 53.2883 61.7477 53.0824 61.8982C52.8516 62.0737 52.6207 62.2429 52.3836 62.4122C52.1965 62.5501 52.0093 62.6754 51.8096 62.8071C51.5351 62.9951 51.2544 63.1831 50.9736 63.3524C50.7989 63.4715 50.6242 63.578 50.4433 63.6846C50.2187 63.8225 49.9878 63.9667 49.757 64.0983C49.289 64.3678 48.8149 64.6311 48.3345 64.8756C48.1535 64.9758 47.9663 65.0636 47.7854 65.1514C47.4111 65.3394 47.043 65.5149 46.6624 65.6841C46.1882 65.8973 45.714 66.0978 45.2274 66.2922C44.984 66.3862 44.7407 66.4802 44.4974 66.568C43.2433 67.0255 41.9581 67.4204 40.6354 67.7276" stroke="black" stroke-width="0.2158" stroke-miterlimit="10"/>
<path d="M39.1381 68.0472C38.3769 68.1851 37.6157 68.3042 36.8358 68.392" stroke="black" stroke-width="0.2158" stroke-miterlimit="10"/>
<path d="M35.6192 68.5048C35.4445 68.5236 35.276 68.5362 35.0951 68.5424" stroke="black" stroke-width="0.2158" stroke-miterlimit="10"/>
<path d="M34.4088 68.58H34.3963H34.3901C34.3838 68.58 34.3776 68.58 34.3714 68.58C34.3526 68.58 34.3464 68.58 34.3277 68.58C34.3215 68.58 34.3215 68.58 34.3152 68.58C34.309 68.58 34.309 68.5863 34.3027 68.58C34.2965 68.5863 34.2965 68.5863 34.2903 68.5863C34.2778 68.5863 34.2715 68.5863 34.2591 68.5863C34.2528 68.5863 34.2528 68.5863 34.2466 68.5863H34.2528" stroke="black" stroke-width="0.2158" stroke-miterlimit="10"/>
<path d="M34.3901 68.5048C34.3838 68.5111 34.3714 68.5174 34.3651 68.5236" stroke="black" stroke-width="0.2158" stroke-miterlimit="10"/>
<path d="M34.2528 68.5863H34.259V68.58H34.2653" stroke="black" stroke-width="0.2158" stroke-miterlimit="10"/>
<path d="M50.2062 49.2929C50.6118 48.2586 50.9612 47.2495 51.2607 46.2716C51.9906 43.9273 52.4461 41.7836 52.7393 39.9972C53.2197 37.07 53.2509 35.0892 53.2509 34.7633C53.2509 32.9643 53.1261 31.228 52.9015 29.567C52.6083 27.3731 52.1279 25.3046 51.5102 23.3615C50.3747 19.7573 48.7775 16.5856 47.0056 13.8464C45.4957 11.5021 43.8611 9.47748 42.2701 7.77254C39.9242 5.2402 37.703 3.40362 36.1869 2.27535C35.3135 1.62347 34.6771 1.20977 34.3963 1.02799C34.3838 1.02172 34.3776 1.01545 34.3714 1.00918C34.3589 1.00292 34.3526 0.996648 34.3464 0.99038C34.3277 0.977844 34.3152 0.971575 34.3027 0.965307C34.2902 0.959039 34.284 0.952771 34.2778 0.946503C34.2715 0.946503 34.2715 0.946503 34.2715 0.946503H34.2528" stroke="black" stroke-width="0.2158" stroke-miterlimit="10"/>
<path d="M34.3027 68.5236C34.2902 68.5362 34.2839 68.5487 34.2777 68.5612" stroke="black" stroke-width="0.2158" stroke-miterlimit="10"/>
<path d="M34.2593 68.58H34.2528V68.5865" stroke="black" stroke-width="0.2158" stroke-miterlimit="10"/>
<path d="M45.1713 40.3169C45.4146 37.9162 45.4583 36.0044 45.4583 34.7633C45.4583 32.4503 45.321 30.2251 45.059 28.1002C44.7595 25.5491 44.2916 23.1484 43.7176 20.9044C42.8878 17.6261 41.8209 14.6738 40.6916 12.0976C39.8743 10.2171 39.0195 8.52472 38.1897 7.04543C37.0791 5.05215 36.0247 3.44123 35.1824 2.23775C34.883 1.80524 34.6084 1.42915 34.3714 1.10321C34.3526 1.0844 34.3402 1.07187 34.3339 1.05306C34.3214 1.04053 34.3152 1.02172 34.3027 1.00918C34.2902 0.996648 34.284 0.984112 34.2778 0.971575C34.2715 0.965307 34.2653 0.952771 34.259 0.952771H34.2528V0.946503" stroke="black" stroke-width="0.2158" stroke-miterlimit="10"/>
<path d="M34.2528 68.5865V68.58" stroke="black" stroke-width="0.2158" stroke-miterlimit="10"/>
<path d="M38.5703 36.6876C38.5828 36.0357 38.589 35.3901 38.589 34.7695C38.589 32.2623 38.5204 29.8365 38.3894 27.4797C38.2521 24.9034 38.04 22.4212 37.7779 20.0456C37.441 17.062 37.0355 14.2476 36.5738 11.5961C36.2805 9.94759 35.9748 8.36801 35.6504 6.85739C35.3072 5.23393 34.9454 3.69196 34.5773 2.23148C34.4961 1.89926 34.415 1.57332 34.3339 1.25364C34.3152 1.2035 34.309 1.15335 34.2903 1.10321C34.284 1.07813 34.2778 1.04679 34.2715 1.02799C34.2653 1.00918 34.2591 0.996648 34.2528 0.977843C34.2528 0.965307 34.2528 0.959039 34.2466 0.952771V0.946503" stroke="black" stroke-width="0.2158" stroke-miterlimit="10"/>
<path d="M34.259 68.555C34.259 68.5675 34.259 68.5738 34.2528 68.58M34.2528 68.58C33.4791 68.5487 32.7055 68.486 31.9506 68.4045C32.7055 68.5174 33.4729 68.58 34.2528 68.58ZM34.2528 68.58H34.259C34.2653 68.58 34.2653 68.58 34.2715 68.58H34.3027H34.3838C34.3901 68.58 34.3901 68.58 34.3963 68.58C34.4025 68.58 34.4025 68.58 34.4088 68.58H34.415C35.2011 68.5738 35.9748 68.5174 36.736 68.4045C36.7547 68.4045 36.7796 68.3983 36.7984 68.392C36.6611 68.4108 36.5238 68.4171 36.3866 68.4359C36.2743 68.4484 36.1557 68.4547 36.0372 68.4672C35.8999 68.486 35.7627 68.4923 35.6254 68.4986C35.4507 68.5174 35.2823 68.5236 35.1013 68.5362C34.8767 68.555 34.6459 68.5612 34.415 68.5738C34.4088 68.5612 34.4088 68.555 34.4088 68.5487" stroke="black" stroke-width="0.6475" stroke-miterlimit="10"/>
<path d="M34.4087 68.555C34.4087 68.5675 34.4087 68.5738 34.4149 68.58C34.6395 68.5675 34.8704 68.5612 35.1012 68.5424C35.2759 68.5299 35.4506 68.5236 35.6253 68.5048C35.7626 68.4986 35.8998 68.486 36.0371 68.4735C36.1556 68.4609 36.2742 68.4547 36.3865 68.4421C36.5238 68.4233 36.6673 68.4171 36.7983 68.3983C36.8108 68.3983 36.817 68.3983 36.8357 68.392C37.391 68.3042 37.94 68.1914 38.4766 68.0472" stroke="black" stroke-width="1.2949" stroke-miterlimit="10"/>
<path d="M40.6541 67.2951C41.3654 66.9942 42.0517 66.6432 42.7068 66.242C42.7131 66.242 42.7131 66.242 42.7131 66.2357C43.4867 65.7656 44.2292 65.2266 44.903 64.6311C46.5626 63.1957 47.9165 61.4281 48.8835 59.4285C49.6572 57.8239 50.1813 56.0562 50.3872 54.2071C50.4558 53.5991 50.4932 52.9848 50.4932 52.3643C50.4932 51.3175 50.3934 50.2958 50.2 49.3054C50.0503 48.4968 49.8319 47.7008 49.5636 46.9423C48.8149 44.8174 47.642 42.8994 46.1321 41.2884C45.8326 40.95 45.5082 40.6303 45.165 40.3294C43.3058 38.637 41.0472 37.3771 38.564 36.7001C37.2101 36.324 35.7939 36.1297 34.3277 36.1297C32.8615 36.1297 31.4452 36.324 30.0913 36.7001C27.5957 37.3771 25.3433 38.637 23.4841 40.3357C23.1472 40.6303 22.829 40.95 22.5233 41.2822C21.0196 42.8931 19.8404 44.8174 19.0917 46.9423C18.8235 47.707 18.6051 48.4968 18.4553 49.3117C18.2619 50.2958 18.1621 51.3175 18.1621 52.3643C18.1621 52.9911 18.1995 53.6117 18.2682 54.2134C18.4741 56.0625 18.9982 57.8239 19.7718 59.4285C20.7389 61.4343 22.099 63.2082 23.7648 64.6436C24.4449 65.2391 25.1686 65.7719 25.9485 66.242C25.9485 66.2483 25.9485 66.2483 25.9548 66.2483C26.6847 66.6933 27.4522 67.0819 28.257 67.4079" stroke="black" stroke-width="1.2949" stroke-miterlimit="10"/>
<path d="M30.2036 68.0472C30.7464 68.1977 31.3079 68.3105 31.8757 68.3983C31.9007 68.4045 31.9256 68.4108 31.9506 68.4108C32.7117 68.4923 33.4792 68.5487 34.2528 68.5863C34.259 68.5738 34.259 68.5675 34.259 68.5612" stroke="black" stroke-width="1.2949" stroke-miterlimit="10"/>
<path d="M30.2036 68.0472C30.7464 68.1977 31.3079 68.3105 31.8756 68.3983C31.9006 68.4045 31.9256 68.4108 31.9505 68.4108C32.7117 68.4923 33.4791 68.5487 34.2527 68.5863H34.259M34.259 68.5863H34.2652M34.259 68.5863C32.2188 68.58 30.2285 68.3983 28.2944 68.0472H40.3858C38.4517 68.3983 36.4552 68.58 34.4212 68.5863H34.415C34.4087 68.5863 34.4087 68.5863 34.4025 68.5863C34.3962 68.5863 34.3962 68.5863 34.39 68.5863H34.2777C34.2715 68.5863 34.2715 68.5863 34.2652 68.5863M34.2652 68.5863H34.2839M34.3775 68.58H34.3962H34.4087H34.415M34.415 68.58C34.6396 68.5675 34.8704 68.5612 35.1013 68.5424M34.415 68.58C34.6458 68.5675 34.8767 68.5612 35.1013 68.5424M34.415 68.58C34.4087 68.5675 34.4087 68.5612 34.4087 68.555M35.1013 68.5424C35.276 68.5299 35.4507 68.5236 35.6254 68.5048M35.1013 68.5424C35.2822 68.5299 35.4507 68.5236 35.6254 68.5048M35.6254 68.5048C35.7626 68.4985 35.8999 68.486 36.0371 68.4735M35.6254 68.5048C35.7626 68.4985 35.8999 68.4923 36.0371 68.4735M36.0371 68.4735C36.1557 68.4609 36.2742 68.4547 36.3865 68.4421M36.3865 68.4421C36.5238 68.4233 36.6673 68.4171 36.7983 68.3983M36.3865 68.4421C36.5238 68.4233 36.661 68.4171 36.7983 68.3983M36.7983 68.3983C36.8108 68.3983 36.817 68.3983 36.8357 68.392C37.391 68.3042 37.9401 68.1914 38.4766 68.0472M34.259 68.555C34.259 68.5675 34.259 68.5738 34.2527 68.58C33.4791 68.5487 32.7054 68.486 31.9505 68.4045C31.9256 68.4045 31.9006 68.3983 31.8756 68.392C31.3079 68.3042 30.7526 68.1914 30.2036 68.041M34.3339 0.40744C15.5915 0.40744 0.405518 15.6704 0.405518 34.4937C0.405518 51.236 12.4221 65.1639 28.2694 68.0347V47.4751H40.6603V67.9846C56.3829 65.0134 68.2747 51.142 68.2747 34.4875C68.2684 15.6704 53.0762 0.40744 34.3339 0.40744Z" stroke="black" stroke-width="1.2949" stroke-miterlimit="10"/>
<path d="M40.6541 47.4814V67.9908C40.5605 68.0096 40.4731 68.0284 40.3733 68.0472H28.2944C28.2819 68.0472 28.2756 68.0472 28.2694 68.041V47.4814H40.6541Z" stroke="black" stroke-width="1.2949" stroke-miterlimit="10"/>
<path d="M28.2944 68.0472H28.2632V68.041C28.2757 68.0473 28.2819 68.0472 28.2944 68.0472Z" stroke="black" stroke-width="0.6845" stroke-miterlimit="10"/>
<path d="M40.6541 67.9908V68.0472H40.3733C40.4731 68.0284 40.5605 68.0159 40.6541 67.9908Z" stroke="black" stroke-width="0.6845" stroke-miterlimit="10"/>
</svg>
